# xmcd
#
# Track frame offsets:
# 150
# 17720
# 29140
# 39885
# 56905
# 76495
# 96975
# 111705
# 121410
# 134220
# 148330
# 161945
# 176520
# 191210
# 202725
# 214275
# 236590
#
# Disc length: 3450 seconds
#
#
# Revision: 0
# Processed by: cddbd v1.5.1PL2 Copyright (c) Steve Scherf et al.
# Submitted via: FreeRIP 2.945 
#
DISCID=100d7811
DTITLE=Jaguariuna - 2006
DYEAR=2006
DGENRE=Country
TTITLE0=Tiozinho - Gleydson Rodrigues e Iza Mariana
TTITLE1=Vai começar tudo de novo - Betto and Mennon
TTITLE2=Have you ever seen the rain - Wanderley Andrade
TTITLE3=Adrenalina - Juliano Cesar
TTITLE4=Ui ai ai - Gleydson Rodrigues
TTITLE5=Rodeio é show - Gleydson Rodrigues e Jorge Moisés
TTITLE6=Cheiro de cerveja - Dois a Um
TTITLE7=Cotton Fields - Cheyenne
TTITLE8=Macaxeira - Banda Vendaval
TTITLE9=Coração de bico pra cima - Ney e Nando
TTITLE10=Grito da Moçada - Gleydson Rodrigues
TTITLE11=Emboladeira - As Leoas
TTITLE12=Sexta-feira já chegou - Rony e Motta
TTITLE13=Espinho na cama - Chico Rey e Paraná
TTITLE14=Virou Mania - Guto e Nando
TTITLE15=Chorei chorei - Trio BMW
TTITLE16=Desatino - Rafael and Adriel
EXTD=
EXTT0=
EXTT1=
EXTT2=
EXTT3=
EXTT4=
EXTT5=
EXTT6=
EXTT7=
EXTT8=
EXTT9=
EXTT10=
EXTT11=
EXTT12=
EXTT13=
EXTT14=
EXTT15=
EXTT16=
PLAYORDER=
